<svg id="Layer_1" data-name="Layer 1" xmlns="http://www.w3.org/2000/svg" xmlns:xlink="http://www.w3.org/1999/xlink" width="88" height="88" viewBox="0 0 88 88"><defs><style>.cls-1,.cls-3,.cls-5{fill:none;}.cls-2{fill:#ea593e;}.cls-3,.cls-4,.cls-5{stroke:#ea593e;stroke-linecap:round;stroke-width:1.6px;}.cls-3,.cls-4{stroke-linejoin:round;}.cls-4{fill:url(#_6_lpi_30_8);}.cls-5{stroke-miterlimit:10;}</style><pattern id="_6_lpi_30_8" data-name="6 lpi 30% 8" width="4" height="4" patternTransform="translate(-10.39 53.48) scale(1.46)" patternUnits="userSpaceOnUse" viewBox="0 0 4 4"><rect class="cls-1" width="4" height="4"/><rect class="cls-2" x="2.5" y="2.51" width="1" height="1"/><rect class="cls-2" x="0.5" y="0.49" width="1" height="1"/></pattern></defs><title>juno-fasttech-large-160percent</title><polyline class="cls-3" points="70.5 21.25 81.75 21.25 81.75 74.75 6.25 74.75 6.25 21.25 48.67 21.25"/><polygon class="cls-4" points="71.11 34.39 57.96 34.39 66.82 13.25 52.64 13.25 40.75 41.61 51.9 41.61 43.04 62.75 61.5 44.1 71.11 34.39"/><polyline class="cls-3" points="71.11 34.39 75.86 39.14 47.79 67.5 43.04 62.75"/><polyline class="cls-3" points="40.75 41.61 45.5 46.36 49.75 46.36"/><polyline class="cls-3" points="64.86 34 71.57 18 66.82 13.25"/><line class="cls-3" x1="6.67" y1="26.92" x2="46.83" y2="26.92"/><line class="cls-3" x1="68.33" y1="26.92" x2="81.67" y2="26.92"/><line class="cls-3" x1="10.17" y1="24.08" x2="12.33" y2="24.08"/><line class="cls-3" x1="16.83" y1="43.08" x2="22" y2="43.08"/><line class="cls-3" x1="11.67" y1="52.75" x2="11.67" y2="52.75"/><line class="cls-3" x1="25.79" y1="52.75" x2="14.54" y2="52.75"/><line class="cls-3" x1="11.67" y1="56.25" x2="11.67" y2="56.25"/><line class="cls-3" x1="30.79" y1="56.25" x2="17.54" y2="56.25"/><line class="cls-3" x1="11.67" y1="59.75" x2="11.67" y2="59.75"/><line class="cls-3" x1="30.79" y1="59.75" x2="17.54" y2="59.75"/><line class="cls-3" x1="11.67" y1="63.25" x2="11.67" y2="63.25"/><line class="cls-3" x1="20.79" y1="63.25" x2="14.54" y2="63.25"/><line class="cls-3" x1="11.67" y1="66.75" x2="11.67" y2="66.75"/><line class="cls-3" x1="25.79" y1="66.75" x2="14.54" y2="66.75"/><polyline class="cls-5" points="11.48 33.08 15.48 37.08 11.48 41.08"/></svg>