<svg id="Layer_1" data-name="Layer 1" xmlns="http://www.w3.org/2000/svg" xmlns:xlink="http://www.w3.org/1999/xlink" width="88" height="88" viewBox="0 0 88 88"><defs><style>.cls-1,.cls-5{fill:none;}.cls-2{fill:#ea593e;}.cls-3{fill:url(#_6_lpi_30_13);}.cls-4{fill:url(#_6_lpi_30_12);}.cls-5,.cls-6{stroke:#ea593e;stroke-linecap:round;stroke-linejoin:round;stroke-width:1.6px;}.cls-6{fill:url(#_6_lpi_30_8);}</style><pattern id="_6_lpi_30_13" data-name="6 lpi 30% 13" width="6" height="6" patternTransform="translate(6.5 -16.96)" patternUnits="userSpaceOnUse" viewBox="0 0 6 6"><rect class="cls-1" width="6" height="6"/><polygon class="cls-2" points="6.26 12.46 5.56 11.75 12.01 5.3 12.72 6 6.26 12.46"/><polygon class="cls-2" points="0.27 12.46 -0.44 11.75 6.01 5.3 6.72 6 0.27 12.46"/><polygon class="cls-2" points="-5.74 12.46 -6.44 11.75 0.01 5.3 0.72 6 -5.74 12.46"/><polygon class="cls-2" points="6.26 6.46 5.56 5.75 12.01 -0.7 12.72 0 6.26 6.46"/><polygon class="cls-2" points="0.27 6.46 -0.44 5.75 6.01 -0.7 6.72 0 0.27 6.46"/><polygon class="cls-2" points="-5.74 6.46 -6.44 5.75 0.01 -0.7 0.72 0 -5.74 6.46"/><polygon class="cls-2" points="6.26 0.46 5.56 -0.25 12.01 -6.7 12.72 -6 6.26 0.46"/><polygon class="cls-2" points="0.27 0.46 -0.44 -0.25 6.01 -6.7 6.72 -6 0.27 0.46"/><polygon class="cls-2" points="-5.74 0.46 -6.44 -0.25 0.01 -6.7 0.72 -6 -5.74 0.46"/></pattern><pattern id="_6_lpi_30_12" data-name="6 lpi 30% 12" width="4" height="4" patternTransform="translate(9.5 -3.3)" patternUnits="userSpaceOnUse" viewBox="0 0 4 4"><rect class="cls-1" width="4" height="4"/><rect class="cls-2" x="1.5" width="1" height="4"/></pattern><pattern id="_6_lpi_30_8" data-name="6 lpi 30% 8" width="4" height="4" patternTransform="translate(27.64 -13.47) scale(1.46)" patternUnits="userSpaceOnUse" viewBox="0 0 4 4"><rect class="cls-1" width="4" height="4"/><rect class="cls-2" x="2.5" y="2.51" width="1" height="1"/><rect class="cls-2" x="0.5" y="0.49" width="1" height="1"/></pattern></defs><title>juno-diversecommunity-large-160percent</title><rect class="cls-3" x="48.04" y="47.97" width="32" height="32"/><polygon class="cls-4" points="23.37 6.88 4.9 38.88 41.85 38.88 23.37 6.88"/><path class="cls-5" d="M64.05,38.72,47.8,22.43A9.59,9.59,0,0,1,61.36,8.86l2.69,2.69,2.69-2.69A9.59,9.59,0,1,1,80.3,22.43Z"/><rect class="cls-5" x="48.04" y="47.97" width="32" height="32"/><polygon class="cls-5" points="23.37 6.88 4.9 38.88 41.85 38.88 23.37 6.88"/><circle class="cls-5" cx="23.37" cy="63.95" r="18"/><path class="cls-6" d="M30.87,53.45a17.91,17.91,0,0,1,8.41,2.09A18,18,0,1,0,15,79.86,18,18,0,0,1,30.87,53.45Z"/></svg>