<svg id="Layer_1" data-name="Layer 1" xmlns="http://www.w3.org/2000/svg" xmlns:xlink="http://www.w3.org/1999/xlink" width="88" height="88" viewBox="0 0 88 88"><defs><style>.cls-1,.cls-4,.cls-5{fill:none;}.cls-2{fill:#ea593e;}.cls-3,.cls-4,.cls-5{stroke:#ea593e;stroke-miterlimit:10;stroke-width:1.6px;}.cls-3{fill:url(#_6_lpi_30_8);}.cls-5{stroke-linecap:round;}</style><pattern id="_6_lpi_30_8" data-name="6 lpi 30% 8" width="4" height="4" patternTransform="translate(21.32 -18.28) scale(1.46)" patternUnits="userSpaceOnUse" viewBox="0 0 4 4"><rect class="cls-1" width="4" height="4"/><rect class="cls-2" x="2.5" y="2.51" width="1" height="1"/><rect class="cls-2" x="0.5" y="0.49" width="1" height="1"/></pattern></defs><title>juno-inperson-large-160percent</title><path class="cls-3" d="M38.56,7.86,44,18.75,49.45,7.86Z"/><path class="cls-3" d="M58.05,9l-.76,12.19,10.13-6.75Z"/><path class="cls-3" d="M20.59,14.39l10.24,6.75L30.07,9Z"/><path class="cls-4" d="M55.61,54.08V32.28a3.11,3.11,0,0,1,3-3.25,3.15,3.15,0,0,1,3,3.37V48.81"/><path class="cls-4" d="M61.63,48.81V30a3.79,3.79,0,0,1,3.61-4,3.87,3.87,0,0,1,3.62,4"/><path class="cls-4" d="M68.61,50.33V31.68a3.15,3.15,0,1,1,6.27,0V51.2"/><path class="cls-4" d="M74.88,51.2V35.53a3.09,3.09,0,0,1,2.89-3.25"/><path class="cls-4" d="M77.77,32.28a3,3,0,0,1,2.77,3.25l.12,17.34s1.08,8.91-1.21,14.45C76,75.63,58.14,77.8,52.6,63.71c-1.09-2.77-2.65-5.78-3.86-8.79-1.56-3.61-5.3-5.78-3.25-8.19"/><path class="cls-4" d="M45.49,46.73c1.81-2,5.42-1.08,7.95,4.21,1.81,3.62,2.29,2.89,3.25,3.14"/><path class="cls-4" d="M68.86,64.91c0-8.79-7.83-10.83-12.17-10.83A5,5,0,0,1,55.61,54"/><path class="cls-5" d="M59.23,71.9a53.38,53.38,0,0,1,1.09,8.24"/><path class="cls-5" d="M76.43,71.42v8.29"/><path class="cls-4" d="M26.37,48.81V32.4a3.15,3.15,0,0,1,3-3.37,3.11,3.11,0,0,1,3,3.25v21.8"/><path class="cls-4" d="M19.14,30a3.87,3.87,0,0,1,3.62-4,3.79,3.79,0,0,1,3.61,4V48.81"/><path class="cls-4" d="M13.12,51.2V31.68a3.37,3.37,0,0,1,3.13-3.5,3.37,3.37,0,0,1,3.14,3.5V50.33"/><path class="cls-4" d="M10.23,32.28a3.09,3.09,0,0,1,2.89,3.25V51.2"/><path class="cls-4" d="M42.51,46.73c2.05,2.41-1.69,4.58-3.25,8.19-1.21,3-2.77,6-3.86,8.79C29.86,77.8,12,75.63,8.55,67.32,6.26,61.78,7.34,52.87,7.34,52.87l.12-17.34a3,3,0,0,1,2.77-3.25"/><path class="cls-4" d="M31.31,54.08c1-.25,1.44.48,3.25-3.14,2.53-5.29,6.14-6.26,7.95-4.21"/><path class="cls-4" d="M32.39,54a5,5,0,0,1-1.08.12c-4.34,0-12.17,2-12.17,10.83"/><path class="cls-5" d="M28.77,71.9a53.38,53.38,0,0,0-1.09,8.24"/><path class="cls-5" d="M11.57,71.42v8.29"/></svg>