<svg id="Layer_1" data-name="Layer 1" xmlns="http://www.w3.org/2000/svg" xmlns:xlink="http://www.w3.org/1999/xlink" width="88" height="88" viewBox="0 0 88 88"><defs><style>.cls-1,.cls-3,.cls-4,.cls-5{fill:none;}.cls-2{fill:#ea593e;}.cls-3,.cls-4,.cls-5{stroke:#ea593e;stroke-width:1.6px;}.cls-3{stroke-linecap:round;}.cls-3,.cls-4{stroke-linejoin:round;}.cls-5{stroke-miterlimit:10;}.cls-6{fill:url(#_6_lpi_30_8);}</style><pattern id="_6_lpi_30_8" data-name="6 lpi 30% 8" width="4" height="4" patternTransform="translate(44.33 -28.58) scale(1.46)" patternUnits="userSpaceOnUse" viewBox="0 0 4 4"><rect class="cls-1" width="4" height="4"/><rect class="cls-2" x="2.5" y="2.51" width="1" height="1"/><rect class="cls-2" x="0.5" y="0.49" width="1" height="1"/></pattern></defs><title>juno-tuition-large-160percent</title><polygon class="cls-3" points="11.01 60.16 5.91 41.12 11.01 22.07 24.95 8.13 44 3.03 63.05 8.13 76.99 22.07 82.09 41.12 76.99 60.16 63.05 74.11 44 79.21 24.95 74.11 11.01 60.16"/><path class="cls-4" d="M56.77,40.1c.64-.21,2.64,2.54,3,3C66.35,52.06,53.22,55,47,55c-13,0-14.58-4.26-22.27-3.67s1.88-4,10.45-8.15a17.35,17.35,0,0,1,15.37-.3S47,32.32,54.4,30.21c4.14-1.19,6.8,4.13,6.8,4.13H68S56.84,40.08,56.77,40.1Z"/><line class="cls-4" x1="62.1" y1="41.09" x2="73.03" y2="41.09"/><line class="cls-4" x1="65.32" y1="46.59" x2="73.38" y2="46.59"/><line class="cls-4" x1="13.83" y1="41.09" x2="27.92" y2="41.09"/><line class="cls-4" x1="15.36" y1="46.59" x2="19.75" y2="46.59"/><polyline class="cls-5" points="82.09 41.12 78.29 65.42 63.05 79.84 44 84.95 24.95 79.84 9.66 64.45 5.91 41.12"/><path class="cls-6" d="M77,22.07,63.05,8.13,44,3,25,8.13,11,22.07l-5.1,19L11,60.17,25,74.11,44,79.21l19-5.1L77,60.17l5.1-19.05ZM70.13,56.2l-11,11L44,71.29,28.92,67.24l-11-11-4-15.08,4-15.08L28.92,15,44,11l15.08,4,11,11,4,15.08Z"/><polyline class="cls-5" points="17.87 26.04 13.83 41.12 17.87 56.2 28.92 67.25 44 71.28 59.08 67.25"/></svg>